<svg xmlns="http://www.w3.org/2000/svg" width="71.5" height="10.8" viewBox="0 0 71.5 10.8">
  <path fill="#000"
    d="M6.18,1.09c0.52,0.22 0.72,0.76 0.52,1.29l-2.41,5.96c-0.16,0.38 -0.47,0.6 -0.9,0.6c-0.43,0 -0.75,-0.22 -0.9,-0.6l-2.41,-5.96c-0.21,-0.53 0.01,-1.07 0.52,-1.29c0.52,-0.21 1.1,-0.02 1.26,0.51l1.53,4.38l1.52,-4.36c0.18,-0.55 0.75,-0.76 1.27,-0.53zM10.71,8.99c-1.87,0 -3.29,-1.3 -3.29,-3.11c0,-1.8 1.42,-3.11 3.29,-3.11c1.86,0 3.27,1.31 3.27,3.11c0,1.81 -1.41,3.11 -3.27,3.11zM12.09,5.88c0,-0.78 -0.52,-1.44 -1.38,-1.44c-0.88,0 -1.39,0.66 -1.39,1.44c0,0.79 0.51,1.43 1.39,1.43c0.86,0 1.38,-0.64 1.38,-1.43zM15.75,0.41c0.55,0 0.93,0.42 0.93,0.98v6.53c0,0.56 -0.38,0.97 -0.93,0.97c-0.55,0 -0.95,-0.41 -0.95,-0.97v-6.53c0,-0.56 0.4,-0.98 0.95,-0.98zM20.8,8.99c-1.87,0 -3.29,-1.3 -3.29,-3.11c0,-1.8 1.42,-3.11 3.29,-3.11c1.86,0 3.28,1.31 3.28,3.11c0,1.81 -1.42,3.11 -3.28,3.11zM22.18,5.88c0,-0.78 -0.52,-1.44 -1.38,-1.44c-0.88,0 -1.39,0.66 -1.39,1.44c0,0.79 0.51,1.43 1.39,1.43c0.86,0 1.38,-0.64 1.38,-1.43zM35.67,7.73c0.07,0.59 -0.18,1.04 -0.72,1.14c-0.58,0.11 -1.07,-0.24 -1.14,-0.84l-0.36,-3.39l-1,2.36c-0.14,0.39 -0.47,0.62 -0.87,0.62c-0.44,0 -0.75,-0.23 -0.89,-0.62l-0.99,-2.36l-0.34,3.39c-0.08,0.6 -0.58,0.95 -1.16,0.84c-0.54,-0.09 -0.78,-0.55 -0.7,-1.14l0.67,-5.83c0.08,-0.62 0.48,-0.9 0.95,-0.9c0.39,0 0.67,0.2 0.87,0.61l1.59,3.23l1.57,-3.23c0.2,-0.41 0.48,-0.61 0.87,-0.61c0.5,0 0.89,0.3 0.98,0.88zM42.54,5.46c0,0.55 -0.25,1.04 -0.85,1.04h-3.35c0.2,0.6 0.69,0.95 1.44,0.95c0.5,0 0.9,-0.14 1.26,-0.27c0.46,-0.17 0.77,-0.09 0.99,0.37c0.18,0.37 0.14,0.71 -0.3,0.97c-0.48,0.26 -1.2,0.47 -2.02,0.47c-2,0 -3.32,-1.32 -3.32,-3.11c0,-1.84 1.47,-3.11 3.2,-3.11c1.6,0 2.95,1.07 2.95,2.69zM40.77,5.22c-0.03,-0.43 -0.45,-1.03 -1.2,-1.03c-0.63,0 -1.06,0.43 -1.24,1.03zM49.3,5.46c0,0.55 -0.25,1.04 -0.85,1.04h-3.35c0.19,0.6 0.68,0.95 1.44,0.95c0.49,0 0.9,-0.14 1.26,-0.27c0.46,-0.17 0.77,-0.09 0.98,0.37c0.18,0.37 0.15,0.71 -0.3,0.97c-0.48,0.26 -1.2,0.47 -2.01,0.47c-2.01,0 -3.33,-1.32 -3.33,-3.11c0,-1.84 1.48,-3.11 3.21,-3.11c1.59,0 2.95,1.07 2.95,2.69zM47.52,5.22c-0.02,-0.43 -0.44,-1.03 -1.2,-1.03c-0.62,0 -1.05,0.43 -1.23,1.03zM53.58,7.18c0.54,0 0.92,0.3 0.92,0.86c0,0.55 -0.38,0.85 -0.92,0.85h-0.3c-1.56,0 -2.35,-0.75 -2.35,-2.41v-1.91h-0.18c-0.54,0 -0.9,-0.33 -0.9,-0.85c0,-0.52 0.36,-0.85 0.9,-0.85h0.18v-0.96c0,-0.57 0.39,-0.99 0.95,-0.99c0.55,0 0.94,0.42 0.94,0.99v0.96h0.74c0.55,0 0.94,0.33 0.94,0.85c0,0.52 -0.39,0.85 -0.94,0.85h-0.74v1.75c0,0.57 0.16,0.86 0.63,0.86zM56.37,2.14c-0.61,0 -1.08,-0.46 -1.08,-1.07c0,-0.61 0.47,-1.07 1.08,-1.07c0.61,0 1.07,0.46 1.07,1.07c0,0.61 -0.46,1.07 -1.07,1.07zM56.37,2.87c0.55,0 0.93,0.41 0.93,0.97v4.08c0,0.56 -0.38,0.97 -0.93,0.97c-0.55,0 -0.95,-0.41 -0.95,-0.97v-4.08c0,-0.56 0.4,-0.97 0.95,-0.97zM61.89,2.77c1.22,0 2.35,0.72 2.35,2.5v2.64c0,0.56 -0.37,0.98 -0.94,0.98c-0.56,0 -0.94,-0.42 -0.94,-0.98v-2.32c0,-0.89 -0.4,-1.14 -1.01,-1.14c-0.78,0 -1.12,0.49 -1.12,0.87v2.59c0,0.56 -0.38,0.98 -0.95,0.98c-0.56,0 -0.93,-0.42 -0.93,-0.98v-4.06c0,-0.56 0.38,-0.98 0.95,-0.98c0.36,0 0.7,0.2 0.8,0.62v0.01h0.07c0.35,-0.39 0.94,-0.73 1.72,-0.73zM68.27,2.77c1.85,0 3.13,1.15 3.13,2.91v2.23c0,1.69 -1.28,2.91 -3.4,2.91c-0.59,0 -1.23,-0.09 -1.59,-0.22c-0.43,-0.16 -0.66,-0.45 -0.5,-0.95c0.18,-0.55 0.53,-0.58 0.96,-0.48c0.36,0.08 0.66,0.12 0.92,0.12c1.39,0 1.75,-0.7 1.75,-1.37v-0.14h-0.07c-0.27,0.38 -0.79,0.78 -1.65,0.78c-1.53,0 -2.78,-1.07 -2.78,-2.9c0,-1.82 1.42,-2.89 3.23,-2.89zM69.54,5.84v-0.03c0,-0.73 -0.45,-1.39 -1.33,-1.39c-0.79,0 -1.32,0.55 -1.32,1.34c0,0.8 0.48,1.36 1.32,1.36c0.79,0 1.33,-0.57 1.33,-1.28z">
  </path>
</svg>